<?xml version="1.0" encoding="utf-8"?>
<!-- Generator: Adobe Illustrator 16.0.3, SVG Export Plug-In . SVG Version: 6.00 Build 0)  -->
<!DOCTYPE svg PUBLIC "-//W3C//DTD SVG 1.1//EN" "http://www.w3.org/Graphics/SVG/1.1/DTD/svg11.dtd">
<svg version="1.1" id="Layer_1" xmlns="http://www.w3.org/2000/svg" xmlns:xlink="http://www.w3.org/1999/xlink" x="0px" y="0px"
	 width="1000px" height="500px" viewBox="0 0 1000 500" xml:space="preserve">
<polyline opacity="0.15" fill="none" stroke="#FFFFFF" stroke-miterlimit="10" points="585.672,500 585.672,437.357 
	595.068,437.357 595.068,419.704 591.937,419.704 591.367,415.718 588.234,415.718 588.804,412.87 585.672,409.738 585.672,405.183 
	592.221,405.183 601.617,376.424 599.909,373.007 602.187,369.021 610.729,369.021 636.07,304.101 645.752,303.607 689.032,203.588 
	687.608,203.588 687.608,200.456 691.31,198.178 709.533,145.786 709.533,140.376 722.347,134.681 722.347,117.027 728.326,98.235 
	728.326,17.369 735.444,0 743.132,16.515 744.556,73.747 744.556,102.221 751.959,115.034 751.959,134.681 764.487,136.674 
	764.487,142.369 784.988,191.629 788.69,193.337 788.69,197.323 786.697,198.462 826.824,291.717 829.598,291.951 843.075,308.087 
	860.159,357.062 877.813,377.563 884.646,405.467 894.328,420.273 894.328,500 "/>
<polyline opacity="0.15" fill="none" stroke="#FFFFFF" stroke-miterlimit="10" points="728.326,17.369 733.878,14.806 
	742.563,16.088 "/>
<path opacity="0.15" fill="none" stroke="#FFFFFF" stroke-miterlimit="10" d="M734.306,15.091l0.712,57.944
	c7.118,11.247,7.118,11.247,7.118,11.247V97.38l9.538,17.511"/>
<polyline opacity="0.15" fill="none" stroke="#FFFFFF" stroke-miterlimit="10" points="734.306,130.979 731.173,130.268 
	722.347,134.681 "/>
<polyline opacity="0.15" fill="none" stroke="#FFFFFF" stroke-miterlimit="10" points="709.533,143.081 731.173,133.969 
	764.487,139.427 "/>
<path opacity="0.15" fill="none" stroke="#FFFFFF" stroke-miterlimit="10" d="M731.91,134.07l-4.438,55.566
	c-8.375,23.692-14.645,41.428-19.337,54.706c-13.978,39.542-13.978,39.542-13.978,39.542l-10.108,0.997v5.552h1.709l-16.657,55.453
	l-10.107,0.784l0.07,6.263l-7.403,29.399l-5.908,0.071v7.118l2.705,1.851h3.844l-0.143,4.414h3.844l0.143,1.281l-36.873,13.524
	l-30.468,2.278"/>
<line opacity="0.15" fill="none" stroke="#FFFFFF" stroke-miterlimit="10" x1="645.752" y1="389.521" x2="769.613" y2="381.193"/>
<polygon opacity="0.15" fill="none" stroke="#FFFFFF" stroke-miterlimit="10" points="659.917,395.929 660.985,395.43 
	760.715,389.166 760.715,390.233 754.309,392.547 754.166,396.996 757.084,405.609 663.619,411.304 663.619,410.022 
	665.755,403.118 665.541,398.42 661.057,398.135 659.917,397.851 "/>
<polyline opacity="0.15" fill="none" stroke="#FFFFFF" stroke-miterlimit="10" points="751.674,133.969 734.306,130.979 
	734.306,113.753 728.326,98.235 735.018,73.035 735.018,73.035 "/>
<polyline opacity="0.15" fill="none" stroke="#FFFFFF" stroke-miterlimit="10" points="728.326,84.282 735.012,72.609 
	742.136,97.38 733.73,112.262 "/>
<polyline opacity="0.15" fill="none" stroke="#FFFFFF" stroke-miterlimit="10" points="595.068,419.704 621.169,417.619 
	650.117,406.324 650.592,407.674 650.592,408.314 651.304,408.599 651.304,409.951 651.304,411.304 652.158,411.803 
	652.158,412.515 637.779,413.015 637.922,414.721 638.847,416.073 639.061,417.213 637.851,417.497 637.922,419.704 
	639.203,419.704 639.203,425.968 612.793,427.677 612.793,436.433 595.068,437.357 "/>
<polyline opacity="0.15" fill="none" stroke="#FFFFFF" stroke-miterlimit="10" points="709.533,145.786 731.68,136.961 
	764.487,142.369 "/>
<polyline opacity="0.15" fill="none" stroke="#FFFFFF" stroke-miterlimit="10" points="691.31,198.178 707.5,191.402 
	728.017,182.815 784.988,191.629 "/>
<polyline opacity="0.15" fill="none" stroke="#FFFFFF" stroke-miterlimit="10" points="687.608,202.924 727.753,186.109 
	788.69,195.71 "/>
<polygon opacity="0.15" fill="none" stroke="#FFFFFF" stroke-miterlimit="10" points="764.867,388.763 764.867,391.04 
	770.468,391.895 770.468,396.45 768.664,404.044 768.569,404.803 782.142,404.044 789.339,412.718 823.714,410.782 831.591,418.375 
	862.723,416.572 862.723,406.796 864.431,406.796 864.431,403.569 838.425,404.519 776.447,395.597 770.657,388.763 "/>
<polygon opacity="0.15" fill="none" stroke="#FFFFFF" stroke-miterlimit="10" points="877.813,415.338 876.39,419.895 
	876.39,426.253 890.057,441.629 889.583,429.386 888.633,429.195 888.539,427.013 887.685,426.823 "/>
<polyline opacity="0.15" fill="none" stroke="#FFFFFF" stroke-miterlimit="10" points="684.049,290.433 678.972,292.521 
	709.153,196.754 720.912,141.252 "/>
<polyline opacity="0.15" fill="none" stroke="#FFFFFF" stroke-miterlimit="10" points="645.752,303.607 653.276,303.246 
	678.972,292.521 "/>
<polyline opacity="0.15" fill="none" stroke="#FFFFFF" stroke-miterlimit="10" points="684.049,287.728 752.03,283.029 
	755.66,287.728 778.725,290.718 755.458,187.061 747.336,139.542 "/>
<line opacity="0.15" fill="none" stroke="#FFFFFF" stroke-miterlimit="10" x1="685.758" y1="290.433" x2="752.03" y2="285.948"/>
<line opacity="0.15" fill="none" stroke="#FFFFFF" stroke-miterlimit="10" x1="694.157" y1="283.884" x2="746.478" y2="279.969"/>
<polyline opacity="0.15" fill="none" stroke="#FFFFFF" stroke-miterlimit="10" points="752.03,279.969 755.66,284.596 
	778.053,287.728 811.515,291.951 826.824,291.717 "/>
<polyline opacity="0.15" fill="none" stroke="#FFFFFF" stroke-miterlimit="10" points="844.306,311.511 829.123,294.704 
	810.899,295.273 778.725,290.718 "/>
<polyline opacity="0.15" fill="none" stroke="#FFFFFF" stroke-miterlimit="10" points="684.049,296.12 653.013,308.656 
	633.937,309.566 "/>
<polyline opacity="0.15" fill="none" stroke="#FFFFFF" stroke-miterlimit="10" points="671.685,301.114 655.859,357.916 
	632.084,366.315 611.421,367.249 "/>
<polyline opacity="0.15" fill="none" stroke="#FFFFFF" stroke-miterlimit="10" points="657.415,359.479 649.169,362.614 
	641.553,395.929 641.015,402.617 "/>
<polyline opacity="0.15" fill="none" stroke="#FFFFFF" stroke-miterlimit="10" points="649.169,362.614 629.379,370.302 
	600.671,371.673 "/>
<line opacity="0.15" fill="none" stroke="#FFFFFF" stroke-miterlimit="10" x1="632.084" y1="369.621" x2="622.709" y2="409.331"/>
<polyline opacity="0.15" fill="none" stroke="#FFFFFF" stroke-miterlimit="10" points="585.672,409.738 618.56,407.317 
	623.613,405.5 641.334,398.645 652.158,394.646 "/>
<line opacity="0.15" fill="none" stroke="#FFFFFF" stroke-miterlimit="10" x1="651.66" y1="382.332" x2="769.471" y2="374.645"/>
<polyline opacity="0.15" fill="none" stroke="#FFFFFF" stroke-miterlimit="10" points="645.752,385.357 773.243,377.705 
	779.294,384.681 835.529,393.081 868.844,391.088 894.328,420.629 890.342,420.629 868.203,394.86 834.604,396.64 778.938,388.525 
	772.104,381.193 769.613,381.193 769.257,378.844 772.317,378.417 773.243,377.705 773.243,374.645 769.471,374.645 
	765.556,345.814 766.054,343.465 765.413,339.835 761.355,339.835 752.03,285.948 752.03,279.969 746.478,279.969 727.472,189.636 
	719.65,288.14 "/>
<line opacity="0.15" fill="none" stroke="#FFFFFF" stroke-miterlimit="10" x1="669.101" y1="345.886" x2="761.355" y2="339.835"/>
<line opacity="0.15" fill="none" stroke="#FFFFFF" stroke-miterlimit="10" x1="659.026" y1="349.661" x2="765.947" y2="342.86"/>
<polyline opacity="0.15" fill="none" stroke="#FFFFFF" stroke-miterlimit="10" points="659.063,352.933 765.556,345.814 
	771.179,352.933 827.842,361.048 856.742,359.34 879.94,386.249 "/>
<polyline opacity="0.15" fill="none" stroke="#FFFFFF" stroke-miterlimit="10" points="820.854,291.951 786.697,198.462 
	808.367,294.915 809.663,295.098 823.506,360.427 "/>
<polyline opacity="0.15" fill="none" stroke="#FFFFFF" stroke-miterlimit="10" points="829.123,294.704 847.488,353.787 
	857.027,353.645 860.159,357.062 "/>
<polyline opacity="0.15" fill="none" stroke="#FFFFFF" stroke-miterlimit="10" points="765.413,339.835 772.033,346.953 
	826.561,354.642 847.488,353.787 "/>
<polyline opacity="0.15" fill="none" stroke="#FFFFFF" stroke-miterlimit="10" points="766.054,343.465 771.748,349.661 
	829.123,357.631 856.885,356.064 878.702,381.193 "/>
<path opacity="0.15" fill="none" stroke="#FFFFFF" stroke-miterlimit="10" d="M783.011,291.325"/>
<polyline opacity="0.15" fill="none" stroke="#FFFFFF" stroke-miterlimit="10" points="766.054,351.082 772.176,357.062 
	827.13,365.177 857.739,364.037 880.959,390.407 "/>
<line opacity="0.15" fill="none" stroke="#FFFFFF" stroke-miterlimit="10" x1="800.008" y1="357.062" x2="805.785" y2="392.439"/>
<line opacity="0.15" fill="none" stroke="#FFFFFF" stroke-miterlimit="10" x1="826.467" y1="360.851" x2="833.041" y2="396.412"/>
<line opacity="0.15" fill="none" stroke="#FFFFFF" stroke-miterlimit="10" x1="857.739" y1="364.037" x2="864.431" y2="395.061"/>
<polyline opacity="0.15" fill="none" stroke="#FFFFFF" stroke-miterlimit="10" points="592.221,405.183 618.915,403.569 
	651.162,391.372 "/>
<polyline opacity="0.15" fill="none" stroke="#FFFFFF" stroke-miterlimit="10" points="601.617,376.424 629.044,374.645 
	656.471,363.229 "/>
<line opacity="0.15" fill="none" stroke="#FFFFFF" stroke-miterlimit="10" x1="658.023" y1="357.062" x2="766.193" y2="350.513"/>
<line opacity="0.15" fill="none" stroke="#FFFFFF" stroke-miterlimit="10" x1="718.336" y1="288.229" x2="713.939" y2="349.265"/>
<line opacity="0.15" fill="none" stroke="#FFFFFF" stroke-miterlimit="10" x1="712.486" y1="349.661" x2="710.565" y2="385.357"/>
<line opacity="0.15" fill="none" stroke="#FFFFFF" stroke-miterlimit="10" x1="690.037" y1="290.143" x2="685.758" y2="351.148"/>
<line opacity="0.15" fill="none" stroke="#FFFFFF" stroke-miterlimit="10" x1="684.049" y1="351.263" x2="681.742" y2="387.102"/>
<line opacity="0.15" fill="none" stroke="#FFFFFF" stroke-miterlimit="10" x1="746.834" y1="286.624" x2="742.561" y2="347.352"/>
<line opacity="0.15" fill="none" stroke="#FFFFFF" stroke-miterlimit="10" x1="741.417" y1="347.428" x2="739.286" y2="383.232"/>
<path opacity="0.15" fill="none" stroke="#FFFFFF" stroke-miterlimit="10" d="M760.715,390.233"/>
<polyline opacity="0.15" fill="none" stroke="#FFFFFF" stroke-miterlimit="10" points="761.355,405.467 757.084,405.609 
	758.295,500 "/>
<path opacity="0.15" fill="none" stroke="#FFFFFF" stroke-miterlimit="10" d="M768.569,412.206"/>
<polyline opacity="0.15" fill="none" stroke="#FFFFFF" stroke-miterlimit="10" points="761.355,405.467 768.569,404.803 
	770.254,500 "/>
<path opacity="0.15" fill="none" stroke="#FFFFFF" stroke-miterlimit="10" d="M665.755,403.118"/>
<path opacity="0.15" fill="none" stroke="#FFFFFF" stroke-miterlimit="10" d="M650.117,406.324"/>
<polyline opacity="0.15" fill="none" stroke="#FFFFFF" stroke-miterlimit="10" points="651.944,500 652.158,412.515 
	663.619,411.304 663.619,500 "/>
<path opacity="0.15" fill="none" stroke="#FFFFFF" stroke-miterlimit="10" d="M656.471,412.059"/>
<line opacity="0.15" fill="none" stroke="#FFFFFF" stroke-miterlimit="10" x1="744.445" y1="69.333" x2="742.136" y2="84.282"/>
<line opacity="0.15" fill="none" stroke="#FFFFFF" stroke-miterlimit="10" x1="735.444" y1="0" x2="733.878" y2="14.806"/>
<line opacity="0.15" fill="none" stroke="#FFFFFF" stroke-miterlimit="10" x1="638.83" y1="363.932" x2="658.023" y2="301.334"/>
<polyline opacity="0.15" fill="none" stroke="#FFFFFF" stroke-miterlimit="10" points="660.356,300.352 685.758,217.682 
	682.422,218.938 "/>
<line opacity="0.15" fill="none" stroke="#FFFFFF" stroke-miterlimit="10" x1="685.758" y1="217.682" x2="723.045" y2="202.924"/>
<polyline opacity="0.15" fill="none" stroke="#FFFFFF" stroke-miterlimit="10" points="707.95,150.336 731.387,140.622 
	765.909,145.786 "/>
<polyline opacity="0.15" fill="none" stroke="#FFFFFF" stroke-miterlimit="10" points="706.486,154.543 731.099,144.226 
	767.803,150.336 "/>
<polyline opacity="0.15" fill="none" stroke="#FFFFFF" stroke-miterlimit="10" points="704.933,159.011 730.793,148.056 
	769.555,154.543 "/>
<polyline opacity="0.15" fill="none" stroke="#FFFFFF" stroke-miterlimit="10" points="703.496,163.141 730.484,151.921 
	770.98,157.97 "/>
<polyline opacity="0.15" fill="none" stroke="#FFFFFF" stroke-miterlimit="10" points="701.976,167.515 730.166,155.905 
	772.777,162.287 "/>
<polyline opacity="0.15" fill="none" stroke="#FFFFFF" stroke-miterlimit="10" points="700.48,171.811 729.861,159.713 
	774.565,166.584 "/>
<polyline opacity="0.15" fill="none" stroke="#FFFFFF" stroke-miterlimit="10" points="699.046,175.936 729.588,163.141 
	776.244,170.619 "/>
<polyline opacity="0.15" fill="none" stroke="#FFFFFF" stroke-miterlimit="10" points="697.508,180.358 729.292,166.843 
	777.898,174.592 "/>
<line opacity="0.15" fill="none" stroke="#FFFFFF" stroke-miterlimit="10" x1="650.117" y1="406.324" x2="650.117" y2="399.277"/>
<polyline opacity="0.15" fill="none" stroke="#FFFFFF" stroke-miterlimit="10" points="695.956,184.82 728.982,170.719 
	779.522,178.495 "/>
<polyline opacity="0.15" fill="none" stroke="#FFFFFF" stroke-miterlimit="10" points="694.52,188.951 728.326,174.829 
	781.32,182.815 "/>
<polyline opacity="0.15" fill="none" stroke="#FFFFFF" stroke-miterlimit="10" points="693.113,192.993 728.372,178.358 
	782.936,186.695 "/>
<polyline opacity="0.15" fill="none" stroke="#FFFFFF" stroke-miterlimit="10" points="687.887,206.248 727.472,189.636 
	786.697,198.462 "/>
<line opacity="0.15" fill="none" stroke="#FFFFFF" stroke-miterlimit="10" x1="685.758" y1="210.303" x2="725.984" y2="193.842"/>
<line opacity="0.15" fill="none" stroke="#FFFFFF" stroke-miterlimit="10" x1="728.326" y1="193.695" x2="787.699" y2="202.924"/>
<polyline opacity="0.15" fill="none" stroke="#FFFFFF" stroke-miterlimit="10" points="684.062,215.13 724.535,197.942 
	729.109,197.421 788.511,206.536 789.686,206.643 790.303,206.843 "/>
<line opacity="0.15" fill="none" stroke="#FFFFFF" stroke-miterlimit="10" x1="723.271" y1="201.519" x2="729.972" y2="201.519"/>
<polyline opacity="0.15" fill="none" stroke="#FFFFFF" stroke-miterlimit="10" points="729.972,201.519 789.357,210.303 
	791.023,210.303 792.377,211.662 "/>
<polyline opacity="0.15" fill="none" stroke="#FFFFFF" stroke-miterlimit="10" points="680.7,222.938 684.54,221.645 
	703.775,213.818 721.59,206.275 "/>
<polyline opacity="0.15" fill="none" stroke="#FFFFFF" stroke-miterlimit="10" points="679.101,226.651 683.351,225.517 
	702.558,217.682 720.166,210.303 "/>
<polyline opacity="0.15" fill="none" stroke="#FFFFFF" stroke-miterlimit="10" points="677.595,230.149 682.185,229.309 
	701.145,222.165 718.645,214.606 "/>
<polyline opacity="0.15" fill="none" stroke="#FFFFFF" stroke-miterlimit="10" points="675.835,234.235 680.928,233.401 
	699.941,225.983 717.276,218.477 "/>
<polyline opacity="0.15" fill="none" stroke="#FFFFFF" stroke-miterlimit="10" points="674.09,238.288 679.726,237.313 
	698.877,229.363 715.898,222.377 "/>
<polyline opacity="0.15" fill="none" stroke="#FFFFFF" stroke-miterlimit="10" points="672.36,242.306 678.499,241.305 
	697.687,233.138 714.388,226.651 "/>
<polyline opacity="0.15" fill="none" stroke="#FFFFFF" stroke-miterlimit="10" points="670.601,246.393 677.595,245.302 
	696.556,237.472 713.086,230.333 "/>
<polyline opacity="0.15" fill="none" stroke="#FFFFFF" stroke-miterlimit="10" points="669.047,250 676.153,248.939 
	694.994,241.681 711.621,234.479 "/>
<polyline opacity="0.15" fill="none" stroke="#FFFFFF" stroke-miterlimit="10" points="667.409,253.804 674.859,253.152 
	693.877,245.226 710.248,238.362 "/>
<polyline opacity="0.15" fill="none" stroke="#FFFFFF" stroke-miterlimit="10" points="665.541,258.142 673.52,257.515 
	692.516,249.547 708.485,243.349 "/>
<polyline opacity="0.15" fill="none" stroke="#FFFFFF" stroke-miterlimit="10" points="663.939,261.861 672.36,261.287 
	691.174,253.804 707.004,247.539 "/>
<polyline opacity="0.15" fill="none" stroke="#FFFFFF" stroke-miterlimit="10" points="662.18,265.948 671.146,265.238 
	689.806,258.142 705.613,251.475 "/>
<polyline opacity="0.15" fill="none" stroke="#FFFFFF" stroke-miterlimit="10" points="660.356,270.182 669.888,269.334 
	688.634,261.861 704.081,255.809 722.305,254.7 741.424,253.804 744.132,256.359 801.563,264.625 810.896,264.427 818.276,271.852 
	"/>
<polyline opacity="0.15" fill="none" stroke="#FFFFFF" stroke-miterlimit="10" points="722.001,205.113 730.661,204.794 
	732.979,205.911 790.324,214.606 792.202,214.606 794.162,215.811 "/>
<polyline opacity="0.15" fill="none" stroke="#FFFFFF" stroke-miterlimit="10" points="720.658,208.91 731.387,208.244 
	733.803,209.567 791.016,217.682 793.719,217.682 795.31,218.477 "/>
<polyline opacity="0.15" fill="none" stroke="#FFFFFF" stroke-miterlimit="10" points="719.209,213.01 732.14,212.416 
	734.594,213.648 791.953,221.855 795.244,221.855 797.464,223.484 "/>
<polyline opacity="0.15" fill="none" stroke="#FFFFFF" stroke-miterlimit="10" points="717.84,216.886 732.979,215.811 
	735.26,217.396 792.964,226.356 796.987,226.356 799.382,227.94 "/>
<polyline opacity="0.15" fill="none" stroke="#FFFFFF" stroke-miterlimit="10" points="716.447,220.823 733.803,219.729 
	736.176,220.823 793.869,230.149 798.274,230.149 801.313,232.429 "/>
<polyline opacity="0.15" fill="none" stroke="#FFFFFF" stroke-miterlimit="10" points="715.035,224.819 734.594,223.484 
	737.292,224.819 794.734,234.235 799.768,234.235 803.401,237.283 "/>
<polyline opacity="0.15" fill="none" stroke="#FFFFFF" stroke-miterlimit="10" points="713.826,228.239 735.26,226.651 
	738.149,229.119 795.645,238.288 801.248,238.288 805.102,241.234 "/>
<polyline opacity="0.15" fill="none" stroke="#FFFFFF" stroke-miterlimit="10" points="712.354,232.404 736.176,231.004 
	739.084,233.001 796.533,242.239 802.691,242.239 807.188,246.083 "/>
<polyline opacity="0.15" fill="none" stroke="#FFFFFF" stroke-miterlimit="10" points="710.913,236.479 737,234.921 
	739.413,236.807 797.227,245.329 803.82,245.329 808.682,249.555 "/>
<polyline opacity="0.15" fill="none" stroke="#FFFFFF" stroke-miterlimit="10" points="709.585,240.237 737.724,238.362 
	740.854,240.604 798.08,249.126 805.207,249.126 810.896,254.7 "/>
<polyline opacity="0.15" fill="none" stroke="#FFFFFF" stroke-miterlimit="10" points="708.135,244.342 738.554,242.306 
	741.775,244.342 798.933,252.923 806.595,252.923 812.377,258.142 "/>
<polyline opacity="0.15" fill="none" stroke="#FFFFFF" stroke-miterlimit="10" points="706.641,248.566 739.413,246.393 
	742.561,248.566 799.85,257.002 808.085,257.002 813.894,261.992 "/>
<polyline opacity="0.15" fill="none" stroke="#FFFFFF" stroke-miterlimit="10" points="705.313,252.324 740,250 743.339,252.324 
	800.725,260.897 809.508,260.897 816.413,267.52 "/>
<polyline opacity="0.15" fill="none" stroke="#FFFFFF" stroke-miterlimit="10" points="699.941,267.52 743.339,265.048 
	746.834,268.241 804.232,276.509 814.897,275.648 823.046,282.935 "/>
<polyline opacity="0.15" fill="none" stroke="#FFFFFF" stroke-miterlimit="10" points="698.41,271.852 744.132,268.817 
	747.878,271.852 805.102,280.377 816.413,279.563 824.634,286.624 "/>
<polyline opacity="0.15" fill="none" stroke="#FFFFFF" stroke-miterlimit="10" points="697.068,275.648 744.906,272.5 
	748.827,275.648 805.89,283.884 817.756,283.471 826.002,289.805 "/>
<polyline opacity="0.15" fill="none" stroke="#FFFFFF" stroke-miterlimit="10" points="695.719,279.466 745.75,276.509 
	749.871,279.563 806.715,287.558 819.053,287.02 826.177,291.325 "/>
<polyline opacity="0.15" fill="none" stroke="#FFFFFF" stroke-miterlimit="10" points="658.482,274.533 668.616,273.47 
	702.604,259.986 741.775,257.619 744.906,260.346 802.505,268.817 812.377,268.241 819.801,275.394 "/>
<polyline opacity="0.15" fill="none" stroke="#FFFFFF" stroke-miterlimit="10" points="656.813,278.414 667.409,277.4 
	701.145,264.115 742.561,261.352 746.478,264.047 803.401,272.5 813.511,271.852 821.381,279.066 "/>
<polyline opacity="0.15" fill="none" stroke="#FFFFFF" stroke-miterlimit="10" points="655.032,282.546 666.184,281.388 
	699.687,268.241 "/>
<polyline opacity="0.15" fill="none" stroke="#FFFFFF" stroke-miterlimit="10" points="653.276,286.624 664.782,285.948 
	698.182,272.5 "/>
<polyline opacity="0.15" fill="none" stroke="#FFFFFF" stroke-miterlimit="10" points="651.637,290.433 663.695,289.485 
	696.765,276.509 "/>
<polyline opacity="0.15" fill="none" stroke="#FFFFFF" stroke-miterlimit="10" points="695.327,280.573 684.049,284.881 
	662.361,293.828 649.867,294.542 "/>
<polyline opacity="0.15" fill="none" stroke="#FFFFFF" stroke-miterlimit="10" points="648.088,298.675 661.175,297.69 
	679.721,290.143 684.049,288.229 "/>
<path opacity="0.15" fill="none" stroke="#FFFFFF" stroke-miterlimit="10" d="M807.837,292.554"/>
<polyline opacity="0.15" fill="none" stroke="#FFFFFF" stroke-miterlimit="10" points="632.198,314.021 651.637,313.212 
	682.896,300.352 "/>
<polyline opacity="0.15" fill="none" stroke="#FFFFFF" stroke-miterlimit="10" points="630.508,318.352 650.402,317.482 
	681.342,305.133 "/>
<polyline opacity="0.15" fill="none" stroke="#FFFFFF" stroke-miterlimit="10" points="629.044,322.102 649.215,321.185 
	680.136,309.147 "/>
<polyline opacity="0.15" fill="none" stroke="#FFFFFF" stroke-miterlimit="10" points="627.396,326.321 648.088,325.36 
	678.972,313.024 "/>
<polyline opacity="0.15" fill="none" stroke="#FFFFFF" stroke-miterlimit="10" points="625.706,330.652 646.416,329.632 
	677.651,317.419 "/>
<polyline opacity="0.15" fill="none" stroke="#FFFFFF" stroke-miterlimit="10" points="624.098,334.772 645.752,333.618 
	676.475,321.337 "/>
<polyline opacity="0.15" fill="none" stroke="#FFFFFF" stroke-miterlimit="10" points="622.432,339.04 644.232,337.795 
	675.144,325.77 "/>
<polyline opacity="0.15" fill="none" stroke="#FFFFFF" stroke-miterlimit="10" points="620.94,342.86 643.094,341.686 
	673.883,329.965 758.703,324.506 763.729,330.201 818.692,337.71 842.32,337.158 859.63,355.543 "/>
<polyline opacity="0.15" fill="none" stroke="#FFFFFF" stroke-miterlimit="10" points="619.399,346.809 642.05,345.886 
	672.598,334.182 759.413,328.611 764.487,334.282 819.566,341.834 843.531,341.056 855.417,353.669 "/>
<polyline opacity="0.15" fill="none" stroke="#FFFFFF" stroke-miterlimit="10" points="617.66,351.263 641.015,350.133 
	671.483,337.949 760.069,332.404 764.867,337.604 820.41,345.814 844.813,345.182 852.976,353.669 "/>
<polyline opacity="0.15" fill="none" stroke="#FFFFFF" stroke-miterlimit="10" points="615.99,355.543 638.83,354.214 
	670.224,342.146 760.772,336.468 "/>
<polyline opacity="0.15" fill="none" stroke="#FFFFFF" stroke-miterlimit="10" points="614.453,359.479 638.83,358.105 
	657.922,350.513 658.993,350.038 "/>
<polyline opacity="0.15" fill="none" stroke="#FFFFFF" stroke-miterlimit="10" points="612.716,363.932 637.494,362.092 
	656.471,354.996 658.725,354.277 "/>
<line opacity="0.15" fill="none" stroke="#FFFFFF" stroke-miterlimit="10" x1="684.522" y1="294.542" x2="752.697" y2="289.805"/>
<polyline opacity="0.15" fill="none" stroke="#FFFFFF" stroke-miterlimit="10" points="683.391,298.311 753.329,293.451 
	757.402,298.311 811.993,306.092 832.364,305.133 848.446,323.483 "/>
<polyline opacity="0.15" fill="none" stroke="#FFFFFF" stroke-miterlimit="10" points="682.277,302.017 753.99,297.276 
	758.035,302.017 812.834,310.062 833.612,309.147 849.772,327.285 "/>
<polyline opacity="0.15" fill="none" stroke="#FFFFFF" stroke-miterlimit="10" points="681.054,306.092 754.692,301.334 
	758.703,306.092 813.673,314.021 834.977,313.024 851.559,332.404 "/>
<polyline opacity="0.15" fill="none" stroke="#FFFFFF" stroke-miterlimit="10" points="679.861,310.062 755.351,305.133 
	759.413,310.062 814.591,318.352 836.05,316.988 852.976,336.468 "/>
<polyline opacity="0.15" fill="none" stroke="#FFFFFF" stroke-miterlimit="10" points="678.672,314.021 756.045,309.147 
	760.772,314.021 815.386,322.102 837.234,320.8 854.15,339.835 "/>
<polyline opacity="0.15" fill="none" stroke="#FFFFFF" stroke-miterlimit="10" points="677.359,318.352 756.716,313.024 
	761.535,317.957 816.279,326.321 838.596,325.177 855.417,343.465 "/>
<polyline opacity="0.15" fill="none" stroke="#FFFFFF" stroke-miterlimit="10" points="676.475,322.102 757.402,316.988 
	762.115,322.102 817.07,330.052 839.843,329.188 856.732,347.238 "/>
<polyline opacity="0.15" fill="none" stroke="#FFFFFF" stroke-miterlimit="10" points="675.144,326.321 758.035,320.646 
	763.159,325.883 817.839,333.683 841,332.914 858.271,351.648 "/>
<polyline opacity="0.15" fill="none" stroke="#FFFFFF" stroke-miterlimit="10" points="752.807,290.433 756.045,294.135 
	811.13,302.017 831.184,301.334 846.794,318.746 "/>
<line opacity="0.15" fill="none" stroke="#FFFFFF" stroke-miterlimit="10" x1="783.931" y1="298.125" x2="795.707" y2="356.446"/>
<polyline opacity="0.15" fill="none" stroke="#FFFFFF" stroke-miterlimit="10" points="767.593,342.179 821.225,349.661 
	846.018,349.053 850.479,353.669 "/>
<polyline opacity="0.15" fill="none" stroke="#FFFFFF" stroke-miterlimit="10" points="635.097,306.595 653.276,305.619 
	684.851,293.451 "/>
<polyline opacity="0.15" fill="none" stroke="#FFFFFF" stroke-miterlimit="10" points="752.03,285.948 755.756,290.433 
	810.305,298.125 829.978,297.741 845.389,314.719 "/>
<polyline opacity="0.15" fill="none" stroke="#FFFFFF" stroke-miterlimit="10" points="655.458,367.249 628.192,377.848 
	600.555,379.676 "/>
<polyline opacity="0.15" fill="none" stroke="#FFFFFF" stroke-miterlimit="10" points="599.109,384.1 627.396,382.332 
	654.344,371.673 "/>
<polyline opacity="0.15" fill="none" stroke="#FFFFFF" stroke-miterlimit="10" points="597.785,388.15 626.727,386.249 
	653.3,375.819 "/>
<polyline opacity="0.15" fill="none" stroke="#FFFFFF" stroke-miterlimit="10" points="596.396,392.401 625.543,390.281 
	645.752,382.403 652.328,379.676 "/>
<polyline opacity="0.15" fill="none" stroke="#FFFFFF" stroke-miterlimit="10" points="595.068,396.468 624.92,394.646 
	645.752,386.249 "/>
<polyline opacity="0.15" fill="none" stroke="#FFFFFF" stroke-miterlimit="10" points="593.628,400.876 624.098,398.729 
	646.6,390.102 "/>
<polyline opacity="0.15" fill="none" stroke="#FFFFFF" stroke-miterlimit="10" points="656.977,361.221 766.707,354.294 
	773.243,361.221 830.927,369.183 858.489,367.515 881.712,393.483 "/>
<polyline opacity="0.15" fill="none" stroke="#FFFFFF" stroke-miterlimit="10" points="655.941,365.33 767.236,358.188 
	773.885,365.33 830.832,373.462 859.388,371.681 882.742,397.688 "/>
<polyline opacity="0.15" fill="none" stroke="#FFFFFF" stroke-miterlimit="10" points="654.971,369.183 767.798,362.329 
	774.549,369.183 831.212,377.278 860.159,375.665 883.716,401.666 "/>
<polyline opacity="0.15" fill="none" stroke="#FFFFFF" stroke-miterlimit="10" points="653.894,373.462 768.357,366.448 
	775.213,373.462 831.496,381.193 861.085,379.549 868.797,387.958 "/>
<polyline opacity="0.15" fill="none" stroke="#FFFFFF" stroke-miterlimit="10" points="652.779,377.887 768.941,370.744 
	773.243,374.645 779.578,381.193 831.702,389.166 835.672,389.521 868.797,387.958 884.646,405.467 "/>
<polyline opacity="0.15" fill="none" stroke="#FFFFFF" stroke-miterlimit="10" points="775.649,377.131 832.16,385.357 
	861.991,383.747 865.95,387.958 "/>
<polygon opacity="0.15" fill="none" stroke="#FFFFFF" stroke-miterlimit="10" points="595.068,474.374 595.068,489.322 
	610.658,488.255 610.658,473.113 "/>
<polygon opacity="0.15" fill="none" stroke="#FFFFFF" stroke-miterlimit="10" points="595.296,447.528 595.296,462.477 
	610.885,461.409 610.885,446.268 "/>
<polygon opacity="0.15" fill="none" stroke="#FFFFFF" stroke-miterlimit="10" points="841.651,431.521 841.651,447.821 
	858.38,445.828 858.023,429.954 "/>
<polygon opacity="0.15" fill="none" stroke="#FFFFFF" stroke-miterlimit="10" points="841.962,457.936 841.962,474.236 
	858.69,472.243 858.334,456.369 "/>
<polygon opacity="0.15" fill="none" stroke="#FFFFFF" stroke-miterlimit="10" points="842.494,483.653 842.494,499.954 
	859.223,497.961 858.867,482.087 "/>
<polygon opacity="0.15" fill="none" stroke="#FFFFFF" stroke-miterlimit="10" points="783.778,420.629 787.836,423.405 
	788.191,440.49 784.276,438.212 "/>
<polyline opacity="0.15" fill="none" stroke="#FFFFFF" stroke-miterlimit="10" points="784.276,447.608 784.276,464.55 
	788.619,466.543 788.619,449.957 784.276,447.608 "/>
<polygon opacity="0.15" fill="none" stroke="#FFFFFF" stroke-miterlimit="10" points="784.775,474.231 784.775,489.037 
	789.545,491.458 789.545,476.509 "/>
<line opacity="0.15" fill="none" stroke="#FFFFFF" stroke-miterlimit="10" x1="782.142" y1="404.044" x2="784.276" y2="500"/>
<polyline opacity="0.15" fill="none" stroke="#FFFFFF" stroke-miterlimit="10" points="760.715,390.233 760.715,394.837 
	761.6,405.444 763.396,500 "/>
<polyline opacity="0.15" fill="none" stroke="#FFFFFF" stroke-miterlimit="10" points="754.166,396.996 760.715,394.6 
	770.468,395.798 "/>
<polyline opacity="0.15" fill="none" stroke="#FFFFFF" stroke-miterlimit="10" points="650.117,403.854 655.941,401.666 
	665.755,403.118 "/>
<polyline opacity="0.15" fill="none" stroke="#FFFFFF" stroke-miterlimit="10" points="655.677,397.239 655.941,401.666 
	656.471,412.059 656.525,500 "/>
<line opacity="0.15" fill="none" stroke="#FFFFFF" stroke-miterlimit="10" x1="639.203" y1="421.235" x2="651.944" y2="420.629"/>
<line opacity="0.15" fill="none" stroke="#FFFFFF" stroke-miterlimit="10" x1="663.619" y1="420.06" x2="757.195" y2="414.224"/>
<polyline opacity="0.15" fill="none" stroke="#FFFFFF" stroke-miterlimit="10" points="862.723,416.572 862.802,421.078 
	831.259,422.765 823.927,416.287 788.619,418.375 782.335,412.718 768.718,413.229 "/>
<path opacity="0.15" fill="none" stroke="#FFFFFF" stroke-miterlimit="10" d="M862.802,421.078"/>
<polyline opacity="0.15" fill="none" stroke="#FFFFFF" stroke-miterlimit="10" points="639.203,422.195 612.797,423.951 
	612.793,427.677 "/>
<line opacity="0.15" fill="none" stroke="#FFFFFF" stroke-miterlimit="10" x1="612.793" y1="432.232" x2="595.068" y2="433.158"/>
<line opacity="0.15" fill="none" stroke="#FFFFFF" stroke-miterlimit="10" x1="673.657" y1="419.434" x2="674.439" y2="500"/>
<line opacity="0.15" fill="none" stroke="#FFFFFF" stroke-miterlimit="10" x1="676.433" y1="419.242" x2="677.215" y2="500"/>
<line opacity="0.15" fill="none" stroke="#FFFFFF" stroke-miterlimit="10" x1="682.489" y1="418.883" x2="683.266" y2="500"/>
<line opacity="0.15" fill="none" stroke="#FFFFFF" stroke-miterlimit="10" x1="685.33" y1="418.688" x2="685.828" y2="500"/>
<line opacity="0.15" fill="none" stroke="#FFFFFF" stroke-miterlimit="10" x1="691.734" y1="418.307" x2="692.235" y2="500"/>
<line opacity="0.15" fill="none" stroke="#FFFFFF" stroke-miterlimit="10" x1="694.083" y1="418.16" x2="694.798" y2="500"/>
<line opacity="0.15" fill="none" stroke="#FFFFFF" stroke-miterlimit="10" x1="700.065" y1="417.787" x2="701.347" y2="500"/>
<line opacity="0.15" fill="none" stroke="#FFFFFF" stroke-miterlimit="10" x1="702.565" y1="417.631" x2="703.625" y2="500"/>
<line opacity="0.15" fill="none" stroke="#FFFFFF" stroke-miterlimit="10" x1="708.484" y1="417.262" x2="709.913" y2="500"/>
<line opacity="0.15" fill="none" stroke="#FFFFFF" stroke-miterlimit="10" x1="711.062" y1="417.102" x2="712.381" y2="500"/>
<line opacity="0.15" fill="none" stroke="#FFFFFF" stroke-miterlimit="10" x1="717.42" y1="416.705" x2="718.359" y2="500"/>
<line opacity="0.15" fill="none" stroke="#FFFFFF" stroke-miterlimit="10" x1="720.351" y1="416.521" x2="721.303" y2="500"/>
<line opacity="0.15" fill="none" stroke="#FFFFFF" stroke-miterlimit="10" x1="725.585" y1="416.195" x2="726.997" y2="500"/>
<line opacity="0.15" fill="none" stroke="#FFFFFF" stroke-miterlimit="10" x1="728.9" y1="415.988" x2="730.129" y2="500"/>
<line opacity="0.15" fill="none" stroke="#FFFFFF" stroke-miterlimit="10" x1="734.496" y1="415.64" x2="736.014" y2="500"/>
<line opacity="0.15" fill="none" stroke="#FFFFFF" stroke-miterlimit="10" x1="737.634" y1="415.444" x2="738.956" y2="500"/>
<line opacity="0.15" fill="none" stroke="#FFFFFF" stroke-miterlimit="10" x1="743.52" y1="415.077" x2="744.841" y2="500"/>
<line opacity="0.15" fill="none" stroke="#FFFFFF" stroke-miterlimit="10" x1="746.19" y1="414.91" x2="747.498" y2="500"/>
<line opacity="0.15" fill="none" stroke="#FFFFFF" stroke-miterlimit="10" x1="789.339" y1="412.718" x2="789.339" y2="418.375"/>
<polyline opacity="0.15" fill="none" stroke="#FFFFFF" stroke-miterlimit="10" points="823.714,410.782 823.927,416.287 
	824.567,500 "/>
<polyline opacity="0.15" fill="none" stroke="#FFFFFF" stroke-miterlimit="10" points="831.591,418.375 831.591,422.747 
	831.591,432.707 823.989,424.45 788.857,426.253 "/>
<polyline opacity="0.15" fill="none" stroke="#FFFFFF" stroke-miterlimit="10" points="870.41,499.954 869.271,417.741 
	865.95,410.782 865.95,406.416 869.176,405.467 875.725,406.606 875.725,410.782 873.731,417.741 869.271,417.741 "/>
<path opacity="0.15" fill="none" stroke="#FFFFFF" stroke-miterlimit="10" d="M873.731,417.741"/>
<polyline opacity="0.15" fill="none" stroke="#FFFFFF" stroke-miterlimit="10" points="865.95,410.118 869.366,409.264 
	875.725,410.782 "/>
<polyline opacity="0.15" fill="none" stroke="#FFFFFF" stroke-miterlimit="10" points="869.176,405.467 869.366,409.264 
	869.271,417.741 "/>
<line opacity="0.15" fill="none" stroke="#FFFFFF" stroke-miterlimit="10" x1="873.731" y1="417.741" x2="874.396" y2="500"/>
<line opacity="0.15" fill="none" stroke="#FFFFFF" stroke-miterlimit="10" x1="612.793" y1="436.433" x2="613.481" y2="500"/>
<line opacity="0.15" fill="none" stroke="#FFFFFF" stroke-miterlimit="10" x1="639.203" y1="425.968" x2="639.677" y2="500"/>
<line opacity="0.15" fill="none" stroke="#FFFFFF" stroke-miterlimit="10" x1="612.793" y1="439.066" x2="639.275" y2="437.357"/>
<line opacity="0.15" fill="none" stroke="#FFFFFF" stroke-miterlimit="10" x1="612.793" y1="454.372" x2="639.677" y2="452.924"/>
<line opacity="0.15" fill="none" stroke="#FFFFFF" stroke-miterlimit="10" x1="613.105" y1="465.263" x2="639.445" y2="463.839"/>
<line opacity="0.15" fill="none" stroke="#FFFFFF" stroke-miterlimit="10" x1="613.481" y1="480.069" x2="639.445" y2="478.646"/>
<line opacity="0.15" fill="none" stroke="#FFFFFF" stroke-miterlimit="10" x1="613.381" y1="490.699" x2="639.608" y2="489.322"/>
<line opacity="0.15" fill="none" stroke="#FFFFFF" stroke-miterlimit="10" x1="788.619" y1="418.375" x2="790.873" y2="500"/>
<polyline opacity="0.15" fill="none" stroke="#FFFFFF" stroke-miterlimit="10" points="789.295,442.862 824.115,440.965 
	831.591,448.273 "/>
<line opacity="0.15" fill="none" stroke="#FFFFFF" stroke-miterlimit="10" x1="831.591" y1="500" x2="831.591" y2="432.707"/>
<polyline opacity="0.15" fill="none" stroke="#FFFFFF" stroke-miterlimit="10" points="789.746,452.021 824.187,450.172 
	831.591,457.076 "/>
<polyline opacity="0.15" fill="none" stroke="#FFFFFF" stroke-miterlimit="10" points="790.02,469.064 824.318,467.446 
	831.591,474.231 "/>
<polyline opacity="0.15" fill="none" stroke="#FFFFFF" stroke-miterlimit="10" points="790.289,478.833 824.395,477.411 
	831.591,483.865 "/>
<polyline opacity="0.15" fill="none" stroke="#FFFFFF" stroke-miterlimit="10" points="831.591,498.103 824.567,492.313 
	790.873,493.547 "/>
<polyline opacity="0.15" fill="none" stroke="#FFFFFF" stroke-miterlimit="10" points="876.39,426.253 876.39,431.663 
	890.057,447.039 890.057,441.629 "/>
</svg>
